<svg version="1.1" id="Layer_1" xmlns="http://www.w3.org/2000/svg" xmlns:xlink="http://www.w3.org/1999/xlink" x="0px" y="0px"
	 width="100%" viewBox="0 0 1080 1080" enable-background="new 0 0 1080 1080" xml:space="preserve">
<path fill="#FEFFFF" opacity="1.000000" stroke="none" 
	d="
M872.000000,1081.000000 
	C861.312439,1081.000000 850.624878,1081.000000 839.265442,1080.635986 
	C833.965393,1079.763306 829.310730,1079.426270 824.712952,1078.719482 
	C764.598633,1069.477661 715.313416,1041.396240 677.880127,993.326599 
	C650.695679,958.418030 635.379089,918.652588 631.983093,874.512756 
	C630.450317,854.591187 629.815674,834.601379 628.711975,814.645874 
	C625.795959,761.922668 622.851807,709.200989 619.904480,656.479492 
	C619.433533,648.055359 618.888367,639.635315 618.377625,631.214478 
	C566.539917,631.214478 515.267883,631.214478 463.838104,631.214478 
	C463.629852,632.531372 463.349792,633.658203 463.287048,634.796997 
	C462.508209,648.934753 461.773651,663.074890 461.002777,677.213135 
	C459.551727,703.825806 458.082123,730.437439 456.624237,757.049744 
	C454.720001,791.810852 453.155762,826.595337 450.763611,861.322815 
	C449.703796,876.709290 448.215881,892.264038 444.797028,907.257812 
	C423.873932,999.019348 345.865875,1068.616089 252.994537,1079.217651 
	C249.638931,1079.600708 246.330444,1080.396484 243.000000,1081.000000 
	C231.645767,1081.000000 220.291550,1081.000000 208.259689,1080.646362 
	C202.454178,1079.733398 197.293457,1079.382690 192.203613,1078.581543 
	C152.577713,1072.344360 116.839043,1057.011353 85.639862,1031.768066 
	C42.304134,996.705078 15.110407,951.784912 4.840195,896.840576 
	C3.421912,889.252869 2.273401,881.614746 0.999996,874.000000 
	C1.000000,862.312439 1.000000,850.624878 1.360833,838.248535 
	C3.466774,807.804932 5.266659,778.053284 6.942296,748.294495 
	C8.786693,715.538696 10.479553,682.774353 12.305859,650.017456 
	C14.808885,605.122925 17.410172,560.233948 19.904228,515.338867 
	C22.075027,476.262817 24.127274,437.180176 26.282747,398.103210 
	C29.190292,345.391846 32.098312,292.680420 35.111786,239.975052 
	C35.995346,224.521713 36.338482,208.962555 38.486919,193.670715 
	C44.562233,150.428650 62.046082,112.082047 90.702705,79.076065 
	C125.321579,39.202908 168.716507,14.440773 220.672989,4.788852 
	C227.771637,3.470142 234.890503,2.260266 242.000000,1.000000 
	C253.354233,1.000000 264.708466,1.000000 276.786835,1.328270 
	C298.691925,3.309926 319.321442,7.467795 339.214264,15.075608 
	C396.875366,37.127552 438.731445,76.257713 465.024750,131.973190 
	C481.132538,166.105576 486.962677,202.291504 485.219208,239.828705 
	C484.743103,250.079453 484.213287,260.327698 483.701935,270.702667 
	C522.168945,270.702667 560.074036,270.702667 598.055603,270.702667 
	C598.055603,268.760040 598.111145,267.110809 598.047241,265.466248 
	C597.162109,242.694504 594.710571,220.000824 597.810120,197.131653 
	C603.908691,152.134033 621.541077,112.377594 651.345337,78.311783 
	C689.058838,35.205921 736.643127,10.106619 793.520386,2.754877 
	C796.374817,2.385926 799.174744,1.594643 802.000000,1.000001 
	C814.354248,1.000000 826.708435,1.000000 839.725708,1.362508 
	C888.079895,6.577426 930.744202,23.607502 967.050476,55.172127 
	C1011.542847,93.853592 1037.809326,142.603424 1043.847900,201.333969 
	C1047.081909,232.789185 1048.114624,264.475159 1049.958984,296.067627 
	C1051.861938,328.663757 1053.524536,361.273926 1055.328003,393.875946 
	C1057.545654,433.961914 1059.810181,474.045319 1062.035889,514.130859 
	C1063.809082,546.067017 1065.533203,578.005981 1067.317993,609.941467 
	C1069.511719,649.194214 1071.772949,688.443298 1073.954712,727.696655 
	C1075.785156,760.630188 1077.509399,793.569702 1079.379395,826.500854 
	C1079.598022,830.352173 1080.444580,834.167847 1081.000000,838.000000 
	C1081.000000,850.020874 1081.000000,862.041809 1080.636230,874.716797 
	C1078.282104,886.995789 1076.959839,898.781982 1074.195679,910.219727 
	C1052.480835,1000.071960 974.773743,1068.613892 883.049377,1079.216431 
	C879.346985,1079.644165 875.682251,1080.397949 872.000000,1081.000000 
M810.205627,635.728699 
	C870.998413,623.666321 927.440918,634.838501 980.099182,668.055054 
	C980.163757,666.736084 980.269653,665.960205 980.229309,665.192139 
	C979.049561,642.736145 977.893982,620.278748 976.654968,597.826050 
	C974.461609,558.078247 972.203796,518.334045 969.996155,478.587067 
	C968.204224,446.323242 966.460938,414.056641 964.669617,381.792786 
	C962.453674,341.879700 960.307068,301.962433 957.937012,262.058441 
	C956.792175,242.783737 956.471741,223.342880 953.581177,204.310913 
	C944.784912,146.393799 899.738586,102.069901 841.651489,92.718941 
	C788.202454,84.114616 734.201355,109.024033 705.817078,155.656021 
	C690.658081,180.560501 684.555237,207.532120 686.595947,236.789291 
	C689.388733,276.829620 691.034119,316.949280 693.265442,357.029663 
	C696.422546,413.739716 699.704773,470.442810 702.859741,527.152954 
	C705.376282,572.388367 707.775330,617.630371 710.245667,662.868408 
	C710.604980,669.447021 711.071106,676.019775 711.537476,683.378845 
	C740.801270,659.500427 773.055359,643.453735 810.205627,635.728699 
M169.656494,638.101257 
	C243.630630,620.535889 310.324829,635.904236 370.456787,682.982361 
	C370.601105,681.875366 370.719147,681.275879 370.752380,680.671692 
	C372.836731,642.745972 374.915344,604.819824 376.991791,566.893677 
	C378.776825,534.290161 380.536011,501.685242 382.347260,469.083191 
	C384.879303,423.508026 387.442108,377.934570 390.005371,332.361145 
	C391.539551,305.083954 393.066406,277.806335 394.660278,250.532623 
	C395.691925,232.879776 396.490967,215.221542 392.696625,197.780182 
	C373.158966,107.971748 273.188416,63.297920 193.571014,109.285774 
	C154.944168,131.597061 131.737015,165.650742 127.359749,210.066132 
	C123.262421,251.641113 122.314270,293.526947 120.000275,335.277039 
	C118.211761,367.546173 116.478600,399.818329 114.676842,432.086731 
	C112.485054,471.340210 110.243080,510.590912 108.030495,549.843201 
	C106.455460,577.785156 104.874649,605.726746 103.334106,633.670593 
	C102.713585,644.926453 102.193665,656.187805 101.578003,668.440857 
	C122.882088,654.401672 145.123566,644.637939 169.656494,638.101257 
M767.993958,958.521240 
	C800.321777,985.517334 837.406006,995.624756 878.856323,988.958923 
	C952.193420,977.165100 1002.638855,904.818359 988.613403,832.005920 
	C974.370544,758.064697 906.856628,710.852600 832.739014,723.003723 
	C772.721375,732.843262 724.845215,785.117737 721.254150,845.833069 
	C718.617126,890.418152 734.098328,928.038635 767.993958,958.521240 
M358.925140,833.740967 
	C358.686035,832.601013 358.424805,831.465271 358.210968,830.320557 
	C342.332520,745.323242 249.319916,696.940796 170.687668,732.779114 
	C114.308807,758.475037 83.080238,816.669861 92.838295,877.852722 
	C106.938416,966.260437 203.102356,1016.593689 283.869965,978.011841 
	C333.796356,954.162415 369.604675,897.894897 358.925140,833.740967 
M488.554321,361.000061 
	C485.399292,361.000061 482.244232,361.000061 478.571350,361.000061 
	C475.245331,421.035736 471.933777,480.809570 468.616577,540.685974 
	C517.202209,540.685974 565.108154,540.685974 613.374634,540.685974 
	C610.052185,480.679718 606.748108,421.006714 603.425659,361.000061 
	C565.154053,361.000061 527.346069,361.000061 488.554321,361.000061 
z"/>
<path fill="#0057D2" opacity="1.000000" stroke="none" 
	d="
M243.468658,1081.000000 
	C246.330444,1080.396484 249.638931,1079.600708 252.994537,1079.217651 
	C345.865875,1068.616089 423.873932,999.019348 444.797028,907.257812 
	C448.215881,892.264038 449.703796,876.709290 450.763611,861.322815 
	C453.155762,826.595337 454.720001,791.810852 456.624237,757.049744 
	C458.082123,730.437439 459.551727,703.825806 461.002777,677.213135 
	C461.773651,663.074890 462.508209,648.934753 463.287048,634.796997 
	C463.349792,633.658203 463.629852,632.531372 463.838104,631.214478 
	C515.267883,631.214478 566.539917,631.214478 618.377625,631.214478 
	C618.888367,639.635315 619.433533,648.055359 619.904480,656.479492 
	C622.851807,709.200989 625.795959,761.922668 628.711975,814.645874 
	C629.815674,834.601379 630.450317,854.591187 631.983093,874.512756 
	C635.379089,918.652588 650.695679,958.418030 677.880127,993.326599 
	C715.313416,1041.396240 764.598633,1069.477661 824.712952,1078.719482 
	C829.310730,1079.426270 833.965393,1079.763306 838.796753,1080.635986 
	C640.645752,1081.000000 442.291534,1081.000000 243.468658,1081.000000 
z"/>
<path fill="#0057D2" opacity="1.000000" stroke="none" 
	d="
M801.531372,1.000001 
	C799.174744,1.594643 796.374817,2.385926 793.520386,2.754877 
	C736.643127,10.106619 689.058838,35.205921 651.345337,78.311783 
	C621.541077,112.377594 603.908691,152.134033 597.810120,197.131653 
	C594.710571,220.000824 597.162109,242.694504 598.047241,265.466248 
	C598.111145,267.110809 598.055603,268.760040 598.055603,270.702667 
	C560.074036,270.702667 522.168945,270.702667 483.701935,270.702667 
	C484.213287,260.327698 484.743103,250.079453 485.219208,239.828705 
	C486.962677,202.291504 481.132538,166.105576 465.024750,131.973190 
	C438.731445,76.257713 396.875366,37.127552 339.214264,15.075608 
	C319.321442,7.467795 298.691925,3.309926 277.255493,1.328270 
	C451.687561,1.000000 626.375122,1.000000 801.531372,1.000001 
z"/>
<path fill="#0158D2" opacity="1.000000" stroke="none" 
	d="
M1081.000000,837.531372 
	C1080.444580,834.167847 1079.598022,830.352173 1079.379395,826.500854 
	C1077.509399,793.569702 1075.785156,760.630188 1073.954712,727.696655 
	C1071.772949,688.443298 1069.511719,649.194214 1067.317993,609.941467 
	C1065.533203,578.005981 1063.809082,546.067017 1062.035889,514.130859 
	C1059.810181,474.045319 1057.545654,433.961914 1055.328003,393.875946 
	C1053.524536,361.273926 1051.861938,328.663757 1049.958984,296.067627 
	C1048.114624,264.475159 1047.081909,232.789185 1043.847900,201.333969 
	C1037.809326,142.603424 1011.542847,93.853592 967.050476,55.172127 
	C930.744202,23.607502 888.079895,6.577426 840.194336,1.362508 
	C920.300720,1.000000 1000.601501,1.000000 1081.000000,1.000000 
	C1081.000000,279.687561 1081.000000,558.375122 1081.000000,837.531372 
z"/>
<path fill="#0158D2" opacity="1.000000" stroke="none" 
	d="
M241.531342,1.000000 
	C234.890503,2.260266 227.771637,3.470142 220.672989,4.788852 
	C168.716507,14.440773 125.321579,39.202908 90.702705,79.076065 
	C62.046082,112.082047 44.562233,150.428650 38.486919,193.670715 
	C36.338482,208.962555 35.995346,224.521713 35.111786,239.975052 
	C32.098312,292.680420 29.190292,345.391846 26.282747,398.103210 
	C24.127274,437.180176 22.075027,476.262817 19.904228,515.338867 
	C17.410172,560.233948 14.808885,605.122925 12.305859,650.017456 
	C10.479553,682.774353 8.786693,715.538696 6.942296,748.294495 
	C5.266659,778.053284 3.466774,807.804932 1.360833,837.779907 
	C1.000000,559.113220 1.000000,280.226440 1.000000,1.000000 
	C81.020576,1.000000 161.041626,1.000000 241.531342,1.000000 
z"/>
<path fill="#0158D2" opacity="1.000000" stroke="none" 
	d="
M872.468628,1081.000000 
	C875.682251,1080.397949 879.346985,1079.644165 883.049377,1079.216431 
	C974.773743,1068.613892 1052.480835,1000.071960 1074.195679,910.219727 
	C1076.959839,898.781982 1078.282104,886.995789 1080.636230,875.185486 
	C1081.000000,943.594238 1081.000000,1012.188477 1081.000000,1081.000000 
	C1011.645935,1081.000000 942.291626,1081.000000 872.468628,1081.000000 
z"/>
<path fill="#0158D2" opacity="1.000000" stroke="none" 
	d="
M0.999996,874.468628 
	C2.273401,881.614746 3.421912,889.252869 4.840195,896.840576 
	C15.110407,951.784912 42.304134,996.705078 85.639862,1031.768066 
	C116.839043,1057.011353 152.577713,1072.344360 192.203613,1078.581543 
	C197.293457,1079.382690 202.454178,1079.733398 207.791031,1080.646362 
	C139.072983,1081.000000 70.145950,1081.000000 1.000000,1081.000000 
	C1.000000,1012.312622 1.000000,943.624939 0.999996,874.468628 
z"/>
<path fill="#0057D2" opacity="1.000000" stroke="none" 
	d="
M809.791260,635.816772 
	C773.055359,643.453735 740.801270,659.500427 711.537476,683.378845 
	C711.071106,676.019775 710.604980,669.447021 710.245667,662.868408 
	C707.775330,617.630371 705.376282,572.388367 702.859741,527.152954 
	C699.704773,470.442810 696.422546,413.739716 693.265442,357.029663 
	C691.034119,316.949280 689.388733,276.829620 686.595947,236.789291 
	C684.555237,207.532120 690.658081,180.560501 705.817078,155.656021 
	C734.201355,109.024033 788.202454,84.114616 841.651489,92.718941 
	C899.738586,102.069901 944.784912,146.393799 953.581177,204.310913 
	C956.471741,223.342880 956.792175,242.783737 957.937012,262.058441 
	C960.307068,301.962433 962.453674,341.879700 964.669617,381.792786 
	C966.460938,414.056641 968.204224,446.323242 969.996155,478.587067 
	C972.203796,518.334045 974.461609,558.078247 976.654968,597.826050 
	C977.893982,620.278748 979.049561,642.736145 980.229309,665.192139 
	C980.269653,665.960205 980.163757,666.736084 980.099182,668.055054 
	C927.440918,634.838501 870.998413,623.666321 809.791260,635.816772 
z"/>
<path fill="#0057D2" opacity="1.000000" stroke="none" 
	d="
M169.261749,638.208313 
	C145.123566,644.637939 122.882088,654.401672 101.578003,668.440857 
	C102.193665,656.187805 102.713585,644.926453 103.334106,633.670593 
	C104.874649,605.726746 106.455460,577.785156 108.030495,549.843201 
	C110.243080,510.590912 112.485054,471.340210 114.676842,432.086731 
	C116.478600,399.818329 118.211761,367.546173 120.000275,335.277039 
	C122.314270,293.526947 123.262421,251.641113 127.359749,210.066132 
	C131.737015,165.650742 154.944168,131.597061 193.571014,109.285774 
	C273.188416,63.297920 373.158966,107.971748 392.696625,197.780182 
	C396.490967,215.221542 395.691925,232.879776 394.660278,250.532623 
	C393.066406,277.806335 391.539551,305.083954 390.005371,332.361145 
	C387.442108,377.934570 384.879303,423.508026 382.347260,469.083191 
	C380.536011,501.685242 378.776825,534.290161 376.991791,566.893677 
	C374.915344,604.819824 372.836731,642.745972 370.752380,680.671692 
	C370.719147,681.275879 370.601105,681.875366 370.456787,682.982361 
	C310.324829,635.904236 243.630630,620.535889 169.261749,638.208313 
z"/>
<path fill="#0057D2" opacity="1.000000" stroke="none" 
	d="
M767.729370,958.283447 
	C734.098328,928.038635 718.617126,890.418152 721.254150,845.833069 
	C724.845215,785.117737 772.721375,732.843262 832.739014,723.003723 
	C906.856628,710.852600 974.370544,758.064697 988.613403,832.005920 
	C1002.638855,904.818359 952.193420,977.165100 878.856323,988.958923 
	C837.406006,995.624756 800.321777,985.517334 767.729370,958.283447 
z"/>
<path fill="#0057D2" opacity="1.000000" stroke="none" 
	d="
M358.968323,834.175903 
	C369.604675,897.894897 333.796356,954.162415 283.869965,978.011841 
	C203.102356,1016.593689 106.938416,966.260437 92.838295,877.852722 
	C83.080238,816.669861 114.308807,758.475037 170.687668,732.779114 
	C249.319916,696.940796 342.332520,745.323242 358.210968,830.320557 
	C358.424805,831.465271 358.686035,832.601013 358.968323,834.175903 
z"/>
<path fill="#0057D2" opacity="1.000000" stroke="none" 
	d="
M489.046204,361.000061 
	C527.346069,361.000061 565.154053,361.000061 603.425659,361.000061 
	C606.748108,421.006714 610.052185,480.679718 613.374634,540.685974 
	C565.108154,540.685974 517.202209,540.685974 468.616577,540.685974 
	C471.933777,480.809570 475.245331,421.035736 478.571350,361.000061 
	C482.244232,361.000061 485.399292,361.000061 489.046204,361.000061 
z"/>
</svg>