<svg version="1.1" id="Layer_1" xmlns="http://www.w3.org/2000/svg" xmlns:xlink="http://www.w3.org/1999/xlink" x="0px" y="0px"
	 width="100%" viewBox="0 0 1080 1080" enable-background="new 0 0 1080 1080" xml:space="preserve">
<path fill="#0057D2" opacity="1.000000" stroke="none" 
	d="
M497.000000,1081.000000 
	C331.352386,1081.000000 166.204788,1081.000000 1.028589,1081.000000 
	C1.028589,721.060608 1.028589,361.121216 1.028589,1.090902 
	C360.897858,1.090902 720.795715,1.090902 1080.846802,1.090902 
	C1080.846802,360.999939 1080.846802,720.999939 1080.846802,1081.000000 
	C886.454102,1081.000000 691.977051,1081.000000 497.000000,1081.000000 
M471.331665,491.168396 
	C467.177887,487.307800 463.384827,482.938629 458.799469,479.686493 
	C447.252228,471.496613 427.756348,471.330750 414.146149,484.994598 
	C301.706390,597.877502 188.923584,710.418640 76.229111,823.047791 
	C73.763969,825.511414 71.112740,827.788879 69.255852,829.500916 
	C85.501083,845.749512 101.313179,861.564819 117.408073,877.663086 
	C224.472412,770.595337 332.041718,663.022644 440.645355,554.415588 
	C441.917084,556.193115 442.963440,558.180664 444.479797,559.698608 
	C489.944824,605.211243 535.453247,650.680603 580.969849,696.141663 
	C583.089661,698.258911 585.177673,700.467590 587.572571,702.238892 
	C595.535583,708.128784 604.092834,711.424683 614.369141,709.162292 
	C622.990356,707.264282 629.611572,702.585632 635.663513,696.533203 
	C737.478638,594.708740 839.324036,492.914520 941.167053,391.117889 
	C942.514343,389.771210 943.916199,388.479126 946.085693,386.402374 
	C946.085693,461.039398 946.085693,534.571655 946.085693,608.084045 
	C968.805603,608.084045 991.021362,608.084045 1013.229126,608.084045 
	C1013.229126,495.549622 1013.229126,383.439178 1013.229126,271.321167 
	C900.716064,271.321167 788.481995,271.321167 676.193298,271.321167 
	C676.193298,293.757812 676.193298,315.871643 676.193298,338.702423 
	C749.857666,338.702423 823.331055,338.702423 897.033264,338.702423 
	C800.456238,435.328644 704.355347,531.478516 607.832581,628.050415 
	C562.666565,582.757812 517.249023,537.213074 471.331665,491.168396 
z"/>
<path fill="#FEFFFF" opacity="1.000000" stroke="none" 
	d="
M471.581604,491.418335 
	C517.249023,537.213074 562.666565,582.757812 607.832581,628.050415 
	C704.355347,531.478516 800.456238,435.328644 897.033264,338.702423 
	C823.331055,338.702423 749.857666,338.702423 676.193298,338.702423 
	C676.193298,315.871643 676.193298,293.757812 676.193298,271.321167 
	C788.481995,271.321167 900.716064,271.321167 1013.229126,271.321167 
	C1013.229126,383.439178 1013.229126,495.549622 1013.229126,608.084045 
	C991.021362,608.084045 968.805603,608.084045 946.085693,608.084045 
	C946.085693,534.571655 946.085693,461.039398 946.085693,386.402374 
	C943.916199,388.479126 942.514343,389.771210 941.167053,391.117889 
	C839.324036,492.914520 737.478638,594.708740 635.663513,696.533203 
	C629.611572,702.585632 622.990356,707.264282 614.369141,709.162292 
	C604.092834,711.424683 595.535583,708.128784 587.572571,702.238892 
	C585.177673,700.467590 583.089661,698.258911 580.969849,696.141663 
	C535.453247,650.680603 489.944824,605.211243 444.479797,559.698608 
	C442.963440,558.180664 441.917084,556.193115 440.645355,554.415588 
	C332.041718,663.022644 224.472412,770.595337 117.408073,877.663086 
	C101.313179,861.564819 85.501083,845.749512 69.255852,829.500916 
	C71.112740,827.788879 73.763969,825.511414 76.229111,823.047791 
	C188.923584,710.418640 301.706390,597.877502 414.146149,484.994598 
	C427.756348,471.330750 447.252228,471.496613 458.799469,479.686493 
	C463.384827,482.938629 467.177887,487.307800 471.581604,491.418335 
z"/>
</svg>