<svg version="1.1" id="Layer_1" xmlns="http://www.w3.org/2000/svg" xmlns:xlink="http://www.w3.org/1999/xlink" x="0px" y="0px"
	 width="100%" viewBox="0 0 1080 1080" enable-background="new 0 0 1080 1080" xml:space="preserve">
<path fill="#0057D2" opacity="1.000000" stroke="none" 
	d="
M604.000000,1081.000000 
	C402.689850,1081.000000 201.879684,1081.000000 1.069524,1081.000000 
	C1.046347,1080.856567 1.002855,1080.713013 1.002854,1080.569580 
	C0.999996,720.777771 1.000000,360.985962 1.000000,1.097076 
	C360.893738,1.097076 720.787476,1.097076 1080.840576,1.097076 
	C1080.840576,360.999939 1080.840576,720.999939 1080.840576,1081.000000 
	C922.128967,1081.000000 763.314514,1081.000000 604.000000,1081.000000 
M526.567505,917.905518 
	C534.384216,956.031860 563.877197,983.069885 602.521851,986.180176 
	C628.419861,988.264587 651.028870,979.803528 669.573608,961.253235 
	C714.581482,916.231689 759.598206,871.218933 804.580627,826.171997 
	C807.281433,823.467346 809.888306,820.630432 812.238403,817.620422 
	C824.808594,801.520447 830.280212,783.172424 830.243286,762.792786 
	C830.096069,681.634338 830.208862,600.475403 830.102295,519.316833 
	C830.097534,515.666565 831.155090,513.166626 833.749268,510.648560 
	C843.075317,501.596344 852.178589,492.313965 861.339294,483.092072 
	C891.544739,452.685059 918.055237,419.434631 938.260925,381.499542 
	C972.523376,317.173401 987.515320,249.037476 978.060059,176.187424 
	C973.294128,139.467514 944.435120,109.495728 907.911438,104.161827 
	C866.708435,98.144547 825.907471,100.758507 785.463501,110.609375 
	C725.666199,125.174110 673.361389,154.063446 627.272339,194.224533 
	C607.831787,211.164673 589.969849,229.926071 571.577759,248.049820 
	C568.715332,250.870529 565.948730,251.924042 561.998779,251.914825 
	C509.337524,251.791702 456.675934,251.812668 404.014404,251.840118 
	C373.185059,251.856186 342.344421,251.462204 311.530487,252.179916 
	C291.756927,252.640472 273.979004,259.977234 259.701965,273.819641 
	C236.732529,296.089783 214.296021,318.910370 191.678253,341.542236 
	C166.940140,366.295776 141.599182,390.490021 117.735634,416.061523 
	C96.242729,439.092712 89.953690,467.058044 99.373566,497.262024 
	C108.941162,527.939636 130.059677,547.914795 161.525162,554.695679 
	C214.373795,566.084412 267.501068,576.177917 320.475769,586.989563 
	C323.339325,587.573975 326.420135,589.206848 328.488281,591.266846 
	C380.085297,642.661194 431.424927,694.314880 483.200073,745.528381 
	C490.999725,753.243530 496.815826,761.053284 497.450348,772.239258 
	C497.646149,775.691406 498.765778,779.090088 499.449890,782.515747 
	C508.409302,827.377563 517.366455,872.239868 526.567505,917.905518 
M276.505554,953.034668 
	C296.812897,946.012085 316.536652,937.670654 335.218689,926.987915 
	C372.480957,905.680725 403.264038,877.607300 425.395935,840.521790 
	C432.490051,828.634460 435.433899,815.921936 432.417694,802.216736 
	C427.848846,781.456726 412.303528,766.453491 392.018524,762.986328 
	C370.689209,759.340637 351.588531,768.162720 339.695068,786.233887 
	C333.683716,795.367676 327.162598,804.337891 319.751312,812.344788 
	C300.640228,832.991638 276.213745,845.457642 250.176819,854.915405 
	C239.825439,858.675537 229.089157,861.375977 218.107254,864.685791 
	C218.107254,863.158386 218.004013,862.658875 218.122635,862.219177 
	C220.070251,854.999695 221.761993,847.695923 224.061829,840.589294 
	C237.557083,798.888428 259.320129,763.634277 298.087860,740.078735 
	C316.370361,728.970093 322.567169,710.423828 318.930603,689.248474 
	C314.588898,663.967102 290.158112,646.028381 264.789520,648.561279 
	C251.581314,649.880066 240.942078,656.464417 230.450745,663.553040 
	C189.487671,691.230591 161.086517,729.195862 141.132675,773.838867 
	C123.113907,814.152588 113.101227,856.606201 109.298416,900.493713 
	C108.386765,911.014893 107.938637,921.938721 109.712860,932.258667 
	C114.150002,958.067383 136.255981,974.493225 163.639709,973.462463 
	C201.944824,972.020630 239.287643,965.051697 276.505554,953.034668 
z"/>
<path fill="#FFFFFF" opacity="1.000000" stroke="none" 
	d="
M526.445801,917.503784 
	C517.366455,872.239868 508.409302,827.377563 499.449890,782.515747 
	C498.765778,779.090088 497.646149,775.691406 497.450348,772.239258 
	C496.815826,761.053284 490.999725,753.243530 483.200073,745.528381 
	C431.424927,694.314880 380.085297,642.661194 328.488281,591.266846 
	C326.420135,589.206848 323.339325,587.573975 320.475769,586.989563 
	C267.501068,576.177917 214.373795,566.084412 161.525162,554.695679 
	C130.059677,547.914795 108.941162,527.939636 99.373566,497.262024 
	C89.953690,467.058044 96.242729,439.092712 117.735634,416.061523 
	C141.599182,390.490021 166.940140,366.295776 191.678253,341.542236 
	C214.296021,318.910370 236.732529,296.089783 259.701965,273.819641 
	C273.979004,259.977234 291.756927,252.640472 311.530487,252.179916 
	C342.344421,251.462204 373.185059,251.856186 404.014404,251.840118 
	C456.675934,251.812668 509.337524,251.791702 561.998779,251.914825 
	C565.948730,251.924042 568.715332,250.870529 571.577759,248.049820 
	C589.969849,229.926071 607.831787,211.164673 627.272339,194.224533 
	C673.361389,154.063446 725.666199,125.174110 785.463501,110.609375 
	C825.907471,100.758507 866.708435,98.144547 907.911438,104.161827 
	C944.435120,109.495728 973.294128,139.467514 978.060059,176.187424 
	C987.515320,249.037476 972.523376,317.173401 938.260925,381.499542 
	C918.055237,419.434631 891.544739,452.685059 861.339294,483.092072 
	C852.178589,492.313965 843.075317,501.596344 833.749268,510.648560 
	C831.155090,513.166626 830.097534,515.666565 830.102295,519.316833 
	C830.208862,600.475403 830.096069,681.634338 830.243286,762.792786 
	C830.280212,783.172424 824.808594,801.520447 812.238403,817.620422 
	C809.888306,820.630432 807.281433,823.467346 804.580627,826.171997 
	C759.598206,871.218933 714.581482,916.231689 669.573608,961.253235 
	C651.028870,979.803528 628.419861,988.264587 602.521851,986.180176 
	C563.877197,983.069885 534.384216,956.031860 526.445801,917.503784 
M628.902405,572.402466 
	C680.642944,520.680969 732.403564,468.979492 784.100342,417.214325 
	C791.162231,410.143036 798.092712,402.921570 804.766052,395.484314 
	C844.380981,351.334656 871.831482,301.276703 878.339478,241.376816 
	C879.713379,228.731888 879.556152,215.920609 880.106201,203.144409 
	C877.738831,202.803894 876.773987,202.629761 875.801392,202.533463 
	C874.309692,202.385757 872.813599,202.203064 871.317810,202.188080 
	C849.576477,201.970154 828.073547,203.962387 807.002075,209.526123 
	C756.295776,222.914673 713.320007,249.733337 676.454529,286.389771 
	C592.787048,369.582703 509.503296,453.161530 426.027863,536.547791 
	C424.641205,537.932983 422.802307,538.865479 421.045807,540.099609 
	C461.515167,580.999939 500.942719,620.847412 540.538757,660.865173 
	C570.466248,630.903931 599.434326,601.903198 628.902405,572.402466 
M381.982361,437.482361 
	C409.905579,409.571106 437.828827,381.659851 466.337952,353.162964 
	C464.521606,353.068726 463.865204,353.004913 463.208801,353.004852 
	C417.731964,352.999908 372.254974,352.960144 326.778748,353.125214 
	C324.653198,353.132904 322.043915,354.478363 320.484375,356.029602 
	C286.234406,390.097473 252.100021,424.281555 217.950974,458.450806 
	C216.921906,459.480499 215.972153,460.589447 214.680267,461.992981 
	C215.812927,462.397095 216.527573,462.756561 217.283798,462.906921 
	C254.470261,470.299774 291.673889,477.607880 328.828369,485.157684 
	C332.439026,485.891388 334.542511,485.060150 337.007721,482.556580 
	C351.733795,467.601227 366.637817,452.821075 381.982361,437.482361 
M707.622192,780.122314 
	C713.748352,773.994263 720.039368,768.017700 725.896545,761.642456 
	C727.576050,759.814392 728.864136,756.837463 728.873840,754.381531 
	C729.049744,709.894531 729.002380,665.406677 729.002625,620.919006 
	C729.002625,619.500854 729.002625,618.082703 729.002625,615.793396 
	C727.806030,616.828125 727.322876,617.195801 726.897278,617.621094 
	C683.999329,660.494507 641.089172,703.355774 598.298157,746.335754 
	C597.105408,747.533752 596.460632,750.148376 596.792480,751.864136 
	C602.824524,783.053955 609.034180,814.209473 615.235474,845.366455 
	C616.676025,852.604248 618.225220,859.820435 619.877625,867.784607 
	C649.406982,838.283386 678.264832,809.453064 707.622192,780.122314 
z"/>
<path fill="#FEFFFF" opacity="1.000000" stroke="none" 
	d="
M276.122681,953.137817 
	C239.287643,965.051697 201.944824,972.020630 163.639709,973.462463 
	C136.255981,974.493225 114.150002,958.067383 109.712860,932.258667 
	C107.938637,921.938721 108.386765,911.014893 109.298416,900.493713 
	C113.101227,856.606201 123.113907,814.152588 141.132675,773.838867 
	C161.086517,729.195862 189.487671,691.230591 230.450745,663.553040 
	C240.942078,656.464417 251.581314,649.880066 264.789520,648.561279 
	C290.158112,646.028381 314.588898,663.967102 318.930603,689.248474 
	C322.567169,710.423828 316.370361,728.970093 298.087860,740.078735 
	C259.320129,763.634277 237.557083,798.888428 224.061829,840.589294 
	C221.761993,847.695923 220.070251,854.999695 218.122635,862.219177 
	C218.004013,862.658875 218.107254,863.158386 218.107254,864.685791 
	C229.089157,861.375977 239.825439,858.675537 250.176819,854.915405 
	C276.213745,845.457642 300.640228,832.991638 319.751312,812.344788 
	C327.162598,804.337891 333.683716,795.367676 339.695068,786.233887 
	C351.588531,768.162720 370.689209,759.340637 392.018524,762.986328 
	C412.303528,766.453491 427.848846,781.456726 432.417694,802.216736 
	C435.433899,815.921936 432.490051,828.634460 425.395935,840.521790 
	C403.264038,877.607300 372.480957,905.680725 335.218689,926.987915 
	C316.536652,937.670654 296.812897,946.012085 276.122681,953.137817 
z"/>
<path fill="#0157D2" opacity="1.000000" stroke="none" 
	d="
M628.652405,572.652466 
	C599.434326,601.903198 570.466248,630.903931 540.538757,660.865173 
	C500.942719,620.847412 461.515167,580.999939 421.045807,540.099609 
	C422.802307,538.865479 424.641205,537.932983 426.027863,536.547791 
	C509.503296,453.161530 592.787048,369.582703 676.454529,286.389771 
	C713.320007,249.733337 756.295776,222.914673 807.002075,209.526123 
	C828.073547,203.962387 849.576477,201.970154 871.317810,202.188080 
	C872.813599,202.203064 874.309692,202.385757 875.801392,202.533463 
	C876.773987,202.629761 877.738831,202.803894 880.106201,203.144409 
	C879.556152,215.920609 879.713379,228.731888 878.339478,241.376816 
	C871.831482,301.276703 844.380981,351.334656 804.766052,395.484314 
	C798.092712,402.921570 791.162231,410.143036 784.100342,417.214325 
	C732.403564,468.979492 680.642944,520.680969 628.652405,572.652466 
z"/>
<path fill="#0157D2" opacity="1.000000" stroke="none" 
	d="
M381.732269,437.732269 
	C366.637817,452.821075 351.733795,467.601227 337.007721,482.556580 
	C334.542511,485.060150 332.439026,485.891388 328.828369,485.157684 
	C291.673889,477.607880 254.470261,470.299774 217.283798,462.906921 
	C216.527573,462.756561 215.812927,462.397095 214.680267,461.992981 
	C215.972153,460.589447 216.921906,459.480499 217.950974,458.450806 
	C252.100021,424.281555 286.234406,390.097473 320.484375,356.029602 
	C322.043915,354.478363 324.653198,353.132904 326.778748,353.125214 
	C372.254974,352.960144 417.731964,352.999908 463.208801,353.004852 
	C463.865204,353.004913 464.521606,353.068726 466.337952,353.162964 
	C437.828827,381.659851 409.905579,409.571106 381.732269,437.732269 
z"/>
<path fill="#0057D2" opacity="1.000000" stroke="none" 
	d="
M707.372437,780.372559 
	C678.264832,809.453064 649.406982,838.283386 619.877625,867.784607 
	C618.225220,859.820435 616.676025,852.604248 615.235474,845.366455 
	C609.034180,814.209473 602.824524,783.053955 596.792480,751.864136 
	C596.460632,750.148376 597.105408,747.533752 598.298157,746.335754 
	C641.089172,703.355774 683.999329,660.494507 726.897278,617.621094 
	C727.322876,617.195801 727.806030,616.828125 729.002625,615.793396 
	C729.002625,618.082703 729.002625,619.500854 729.002625,620.919006 
	C729.002380,665.406677 729.049744,709.894531 728.873840,754.381531 
	C728.864136,756.837463 727.576050,759.814392 725.896545,761.642456 
	C720.039368,768.017700 713.748352,773.994263 707.372437,780.372559 
z"/>
</svg>