<svg version="1.1" id="Layer_1" xmlns="http://www.w3.org/2000/svg" xmlns:xlink="http://www.w3.org/1999/xlink" x="0px" y="0px"
	 width="100%" viewBox="0 0 1080 1080" enable-background="new 0 0 1080 1080" xml:space="preserve">
<path fill="#0057D2" opacity="1.000000" stroke="none" 
	d="
M0.999999,262.000000 
	C1.000000,175.023071 1.000000,88.046127 1.000000,1.034598 
	C360.881500,1.034598 720.763000,1.034598 1081.000000,1.034598 
	C1081.000000,88.691246 1081.000000,176.382980 1080.720703,264.282501 
	C1078.839478,254.476700 1074.443970,245.887512 1067.276001,238.720123 
	C1022.377197,193.824936 977.550842,148.856873 932.537598,104.076698 
	C915.055603,86.685272 886.648254,86.652527 869.928528,103.534912 
	C851.497070,122.145782 851.239868,149.666824 869.410645,167.944443 
	C887.269592,185.908539 905.204651,203.796967 923.101318,221.723633 
	C924.283936,222.908157 925.423645,224.135574 927.213684,225.999466 
	C883.822449,225.999466 841.662964,225.829407 799.506165,226.090759 
	C784.537720,226.183563 769.520569,226.731125 754.622498,228.114334 
	C725.059998,230.859024 696.739807,238.714233 669.885193,251.403809 
	C620.409973,274.782288 581.316162,310.564301 548.373962,353.659485 
	C546.369995,356.281128 547.161316,357.958710 548.402100,360.281860 
	C562.659851,386.977081 576.844055,413.711548 591.048950,440.434998 
	C591.856934,441.955017 592.674500,443.469940 593.748962,445.475006 
	C595.309265,443.161346 596.525574,441.408997 597.690247,439.622955 
	C611.640625,418.230652 627.044861,397.974701 644.708313,379.487183 
	C683.575623,338.806671 730.427185,316.045074 787.373657,316.011536 
	C832.536011,315.984924 877.698425,315.999756 922.860779,316.016296 
	C924.020020,316.016724 925.179077,316.250793 927.516357,316.503082 
	C925.248840,318.482880 923.792114,319.613007 922.498108,320.905914 
	C905.050598,338.338989 887.649353,355.818420 870.184998,373.234558 
	C861.703674,381.692474 856.612488,391.744659 856.087036,403.761932 
	C855.249329,422.921082 865.575562,439.343964 883.065308,447.225861 
	C899.689453,454.717651 919.355042,451.067749 933.241760,437.240051 
	C978.352173,392.321259 1023.423157,347.360687 1068.132324,302.044250 
	C1073.050171,297.059662 1075.561890,289.688843 1079.120850,283.385986 
	C1079.898193,282.009247 1080.381348,280.466339 1081.000000,279.000000 
	C1081.000000,453.691559 1081.000000,628.383118 1080.654541,803.376221 
	C1078.605957,794.050354 1074.306885,785.759277 1067.399902,778.851318 
	C1022.384338,733.829102 977.440247,688.734863 932.289246,643.848694 
	C915.030701,626.691345 886.637756,626.740112 870.040100,643.424194 
	C851.535645,662.024963 851.183838,689.602783 869.305298,707.836670 
	C887.280579,725.923401 905.335999,743.930542 923.343872,761.984863 
	C924.430847,763.074585 925.409363,764.272461 926.554626,765.549744 
	C925.905273,765.803101 925.760742,765.909363 925.616760,765.908569 
	C873.467407,765.624451 821.294006,766.185791 769.177856,764.717712 
	C738.531250,763.854309 710.274780,752.987427 684.667175,735.955139 
	C653.243408,715.054321 628.683289,687.364807 607.247803,656.697510 
	C579.229919,616.613098 556.943665,573.251160 534.984863,529.710327 
	C509.823181,479.818665 485.816681,429.309784 456.481812,381.636597 
	C434.476227,345.874481 409.512634,312.478271 377.799164,284.566956 
	C334.749634,246.678741 284.868622,226.229553 227.226746,226.056076 
	C166.894196,225.874496 106.560593,225.939713 46.227680,226.038208 
	C25.556257,226.071960 8.758477,238.878723 2.682896,258.636688 
	C2.319479,259.818542 1.569893,260.881653 0.999999,262.000000 
z"/>
<path fill="#0057D2" opacity="1.000000" stroke="none" 
	d="
M1081.000000,819.000000 
	C1081.000000,906.310181 1081.000000,993.620361 1081.000000,1080.965332 
	C721.118591,1080.965332 361.237152,1080.965332 1.000000,1080.965332 
	C1.000000,993.975403 1.000000,906.950378 1.331607,819.642822 
	C7.769331,843.202393 24.305731,855.996582 49.053688,855.998901 
	C107.526237,856.004456 165.998871,855.941467 224.471313,856.018311 
	C277.324371,856.087769 324.410553,839.654663 366.044647,807.191589 
	C393.909180,785.465027 416.591125,759.005310 436.736511,730.227600 
	C437.608032,728.982666 437.408539,726.151611 436.589478,724.683472 
	C421.525543,697.681641 406.290161,670.775513 391.093750,643.847595 
	C390.302704,642.445984 389.535828,641.030701 388.542633,639.232300 
	C386.802887,642.064941 385.316467,644.454895 383.859192,646.862549 
	C369.700470,670.255188 354.337524,692.757385 335.886932,713.057495 
	C304.157074,747.967957 266.044861,767.319580 217.613113,766.283508 
	C160.832443,765.068726 104.005844,765.965942 47.199223,766.016663 
	C25.550621,766.035950 8.943045,778.455688 2.532403,799.114075 
	C2.215230,800.136108 1.519473,801.040710 1.000005,802.000000 
	C1.000000,627.975098 1.000000,453.950195 1.330876,279.643951 
	C7.802396,303.237518 24.305700,315.992218 49.083302,315.999786 
	C109.078575,316.018127 169.074234,315.911438 229.068939,316.103180 
	C255.600906,316.187988 279.864685,324.159271 301.722748,339.129211 
	C326.410370,356.037109 345.588654,378.329285 362.705139,402.551086 
	C387.272583,437.316956 406.466248,475.163483 426.005188,512.825806 
	C451.578674,562.120056 476.428802,611.824463 503.375214,660.361389 
	C528.194763,705.067261 558.323486,746.178162 596.440063,780.858582 
	C622.025085,804.137085 650.441956,823.016785 682.580688,836.065247 
	C717.138489,850.095886 753.196228,856.040161 790.367676,856.009155 
	C834.031006,855.972717 877.694275,856.000549 921.357605,856.000549 
	C923.015686,856.000549 924.673767,856.000610 927.709351,856.000610 
	C907.873596,875.742432 889.247070,894.348633 870.537781,912.871277 
	C861.901550,921.421204 856.621094,931.542358 856.087219,943.753845 
	C855.249146,962.925171 865.561157,979.329224 883.058838,987.222961 
	C899.815796,994.782471 919.520203,990.944275 933.603210,976.903687 
	C978.450623,932.191345 1023.187988,887.368591 1067.950439,842.571106 
	C1073.469849,837.047363 1077.288818,830.512390 1079.288086,822.921631 
	C1079.647095,821.558716 1080.418823,820.304443 1081.000000,819.000000 
z"/>
<path fill="#FFFFFF" opacity="1.000000" stroke="none" 
	d="
M1081.000000,818.533875 
	C1080.418823,820.304443 1079.647095,821.558716 1079.288086,822.921631 
	C1077.288818,830.512390 1073.469849,837.047363 1067.950439,842.571106 
	C1023.187988,887.368591 978.450623,932.191345 933.603210,976.903687 
	C919.520203,990.944275 899.815796,994.782471 883.058838,987.222961 
	C865.561157,979.329224 855.249146,962.925171 856.087219,943.753845 
	C856.621094,931.542358 861.901550,921.421204 870.537781,912.871277 
	C889.247070,894.348633 907.873596,875.742432 927.709351,856.000610 
	C924.673767,856.000610 923.015686,856.000549 921.357605,856.000549 
	C877.694275,856.000549 834.031006,855.972717 790.367676,856.009155 
	C753.196228,856.040161 717.138489,850.095886 682.580688,836.065247 
	C650.441956,823.016785 622.025085,804.137085 596.440063,780.858582 
	C558.323486,746.178162 528.194763,705.067261 503.375214,660.361389 
	C476.428802,611.824463 451.578674,562.120056 426.005188,512.825806 
	C406.466248,475.163483 387.272583,437.316956 362.705139,402.551086 
	C345.588654,378.329285 326.410370,356.037109 301.722748,339.129211 
	C279.864685,324.159271 255.600906,316.187988 229.068939,316.103180 
	C169.074234,315.911438 109.078575,316.018127 49.083302,315.999786 
	C24.305700,315.992218 7.802396,303.237518 1.330876,279.181305 
	C1.000000,273.645081 1.000000,268.290131 0.999999,262.467590 
	C1.569893,260.881653 2.319479,259.818542 2.682896,258.636688 
	C8.758477,238.878723 25.556257,226.071960 46.227680,226.038208 
	C106.560593,225.939713 166.894196,225.874496 227.226746,226.056076 
	C284.868622,226.229553 334.749634,246.678741 377.799164,284.566956 
	C409.512634,312.478271 434.476227,345.874481 456.481812,381.636597 
	C485.816681,429.309784 509.823181,479.818665 534.984863,529.710327 
	C556.943665,573.251160 579.229919,616.613098 607.247803,656.697510 
	C628.683289,687.364807 653.243408,715.054321 684.667175,735.955139 
	C710.274780,752.987427 738.531250,763.854309 769.177856,764.717712 
	C821.294006,766.185791 873.467407,765.624451 925.616760,765.908569 
	C925.760742,765.909363 925.905273,765.803101 926.554626,765.549744 
	C925.409363,764.272461 924.430847,763.074585 923.343872,761.984863 
	C905.335999,743.930542 887.280579,725.923401 869.305298,707.836670 
	C851.183838,689.602783 851.535645,662.024963 870.040100,643.424194 
	C886.637756,626.740112 915.030701,626.691345 932.289246,643.848694 
	C977.440247,688.734863 1022.384338,733.829102 1067.399902,778.851318 
	C1074.306885,785.759277 1078.605957,794.050354 1080.654541,803.838867 
	C1081.000000,808.689270 1081.000000,813.378479 1081.000000,818.533875 
z"/>
<path fill="#FFFFFF" opacity="1.000000" stroke="none" 
	d="
M1081.000000,278.535339 
	C1080.381348,280.466339 1079.898193,282.009247 1079.120850,283.385986 
	C1075.561890,289.688843 1073.050171,297.059662 1068.132324,302.044250 
	C1023.423157,347.360687 978.352173,392.321259 933.241760,437.240051 
	C919.355042,451.067749 899.689453,454.717651 883.065308,447.225861 
	C865.575562,439.343964 855.249329,422.921082 856.087036,403.761932 
	C856.612488,391.744659 861.703674,381.692474 870.184998,373.234558 
	C887.649353,355.818420 905.050598,338.338989 922.498108,320.905914 
	C923.792114,319.613007 925.248840,318.482880 927.516357,316.503082 
	C925.179077,316.250793 924.020020,316.016724 922.860779,316.016296 
	C877.698425,315.999756 832.536011,315.984924 787.373657,316.011536 
	C730.427185,316.045074 683.575623,338.806671 644.708313,379.487183 
	C627.044861,397.974701 611.640625,418.230652 597.690247,439.622955 
	C596.525574,441.408997 595.309265,443.161346 593.748962,445.475006 
	C592.674500,443.469940 591.856934,441.955017 591.048950,440.434998 
	C576.844055,413.711548 562.659851,386.977081 548.402100,360.281860 
	C547.161316,357.958710 546.369995,356.281128 548.373962,353.659485 
	C581.316162,310.564301 620.409973,274.782288 669.885193,251.403809 
	C696.739807,238.714233 725.059998,230.859024 754.622498,228.114334 
	C769.520569,226.731125 784.537720,226.183563 799.506165,226.090759 
	C841.662964,225.829407 883.822449,225.999466 927.213684,225.999466 
	C925.423645,224.135574 924.283936,222.908157 923.101318,221.723633 
	C905.204651,203.796967 887.269592,185.908539 869.410645,167.944443 
	C851.239868,149.666824 851.497070,122.145782 869.928528,103.534912 
	C886.648254,86.652527 915.055603,86.685272 932.537598,104.076698 
	C977.550842,148.856873 1022.377197,193.824936 1067.276001,238.720123 
	C1074.443970,245.887512 1078.839478,254.476700 1080.720703,264.745148 
	C1081.000000,269.356903 1081.000000,273.713806 1081.000000,278.535339 
z"/>
<path fill="#FEFFFF" opacity="1.000000" stroke="none" 
	d="
M1.000005,802.467590 
	C1.519473,801.040710 2.215230,800.136108 2.532403,799.114075 
	C8.943045,778.455688 25.550621,766.035950 47.199223,766.016663 
	C104.005844,765.965942 160.832443,765.068726 217.613113,766.283508 
	C266.044861,767.319580 304.157074,747.967957 335.886932,713.057495 
	C354.337524,692.757385 369.700470,670.255188 383.859192,646.862549 
	C385.316467,644.454895 386.802887,642.064941 388.542633,639.232300 
	C389.535828,641.030701 390.302704,642.445984 391.093750,643.847595 
	C406.290161,670.775513 421.525543,697.681641 436.589478,724.683472 
	C437.408539,726.151611 437.608032,728.982666 436.736511,730.227600 
	C416.591125,759.005310 393.909180,785.465027 366.044647,807.191589 
	C324.410553,839.654663 277.324371,856.087769 224.471313,856.018311 
	C165.998871,855.941467 107.526237,856.004456 49.053688,855.998901 
	C24.305731,855.996582 7.769331,843.202393 1.331607,819.180176 
	C1.000000,813.645081 1.000000,808.290100 1.000005,802.467590 
z"/>
</svg>